<svg width="250" height="132" viewBox="0 0 250 132" fill="none" xmlns="http://www.w3.org/2000/svg">
<path d="M246.481 2.15944C243.052 2.15944 239.169 1.67449 235.831 2.3961C232.784 3.05507 230.577 4.19322 228.225 6.28409C224.981 4.5 225.424 4.36382 224.481 4C221.89 3 219.481 2.3961 216.481 3.5C214.981 4 214.955 4.56087 213.981 5.5C212.704 6.73122 212.398 6.87956 210.981 8C205.592 12.2611 201.481 15.5 195.981 20C192.931 22.2661 189.481 25 185.981 28C184.873 29.0316 181.703 31.0493 180.481 32C177.981 33 176.29 34.397 174.481 35C169.981 36.5 169.981 36.5 161.114 37.4556C157.767 37.8164 156.167 37.9189 154.164 37.9189C151.981 37.9189 150.981 38 148.981 38C146.871 38.1563 144.596 38.0768 142.481 37.5C140.981 37.5 140.282 37.5 138.481 37.5C133.481 38 132.981 38 130.481 38.5C127.981 38.5 125.706 38.3067 123.418 38.6727C120.667 39.1129 117.732 41.3933 114.981 41.8676C112.521 42.2919 111.412 43.3371 108.981 44C102.717 45.7085 98.3632 47.059 92.4812 50C89.2315 51.6249 85.3293 52.1264 81.9812 53.5C79.8185 54.3873 75.8627 55.7171 73.9812 57C69.4812 58 64.5258 57.331 59.7563 57.2337C57.3151 57.1838 55.4236 56.1422 53.1298 55.577C49.9001 54.7813 46.5839 54.2406 43.3253 53.5823C39.9492 52.9003 36.3285 52.6648 33.0137 51.7567C29.9828 50.9263 27.6144 48.4866 24.7305 47.4292C22.346 46.5548 24.1011 49.5053 24.3586 50.6072C24.8083 52.5309 25.9817 55.4328 24.6629 57.166C21.7995 60.9294 15.8288 62.5886 11.4099 63.3868C8.96475 63.8285 6.50657 64.0291 4.02277 63.9109C3.64973 63.8931 1.1909 63.2273 2.11258 63.3868C5.44589 63.9637 8.87036 65.7067 11.9812 67C15.2806 68.3717 18.2996 69.5826 21.7216 70.7233C26.5631 72.3371 26.4812 72.5 31.4812 74C32.289 74.393 37.2305 76.615 38.0004 77C38.8465 77.4231 39.6732 77.8315 40.3163 78.5331C41.9815 80.3496 41.4214 83.313 40.0458 85.0581C37.6148 88.1423 36.3914 90.3107 33.4812 92.682C31.1408 94.589 29.9812 96 26.9812 98.5C24.4812 100.583 21.8234 102.94 19.4733 104.87C17.5224 106.472 14.3494 108.898 13.7258 111.496C13.3627 113.01 13.0508 114.885 15.1458 114.573C18.9683 114.004 22.6818 112.714 26.1674 111.074C29.9782 109.281 34.3862 107.006 38.0004 104.87C39.4366 104.021 41.0566 102.912 42.4812 102C44.6977 100.581 47.0971 99.2174 49.4812 98C54.2345 95.5728 58.9812 93.5 63.9812 91.5C67.7312 90 69.5941 89.0647 72.7726 87.4755C79.9133 83.9051 87.8649 81.1488 95.7962 80.2235C100.326 79.6951 104.899 79.981 109.404 79.2938C112.261 78.8581 114.913 78.0615 117.67 77.2145C119.34 76.7017 120.967 76.4241 122.471 75.4903C126.167 73.1963 128.718 70.2564 131.481 67C133.56 64.5497 135.983 61.3752 137.854 58.755" stroke="#FF04D7" stroke-width="3" stroke-linecap="round"/>
<path d="M79.0042 85.7255C78.8443 87.3247 78.5872 88.3774 79.4437 89.9347C80.216 91.3389 80.8148 93.0672 81.4812 94.5C82.4977 96.6855 82.4812 97 83.9812 99.5C84.5059 100.374 85.2348 102.951 85.5462 104.134C85.733 104.844 85.5752 105.562 86.0026 106.18C86.7143 107.208 87.5265 108.013 88.5889 108.682C89.9548 109.542 91.3872 110.721 92.8488 111.42C94.4209 112.172 97.8725 113.901 99.6781 112.637C101.81 111.145 103.571 110.202 104.749 107.583C105.652 105.577 107.2 103.938 108.367 102.123C109.936 99.6815 111.921 97.233 113.996 95.1581" stroke="#FF04D7" stroke-width="3" stroke-linecap="round"/>
<path d="M102.738 111.589C102.738 114.501 107.134 116.762 109.5 117.607C111.992 118.497 114.3 120.496 114.3 123.152C114.3 124.209 114.117 124.595 113.016 124.91C111.034 125.476 110.114 123.695 108.282 123.76C106.756 123.815 105.989 125.116 105.24 126.194C104.217 127.667 103.936 128.469 102.434 129.542C100.342 131.035 98.7206 120.616 96.348 119.957C94.9669 119.573 94.1246 119.018 92.7136 119.652C91.406 120.241 90.5937 121.754 89.5018 122.678C88.3315 123.669 86.8696 124.551 85.4616 123.456C84.0987 122.396 86.0067 119.156 86.5942 118.165C87.5941 116.478 89.2577 115.109 89.6539 113.127C89.9205 111.794 89.606 110.793 88.8087 109.662C88.5262 109.261 87.2406 108.536 87.8282 108.242" stroke="#FF04D7" stroke-width="3" stroke-linecap="round"/>
<path d="M109.432 103.069C113.275 103.069 116.292 103.137 120.16 103.137C123.304 103.137 126.481 103.069 129.981 103.069C131.255 102.838 135.469 102.564 136.481 103.678C137.219 104.489 138.955 105.331 139.691 106.112C140.498 106.97 141.473 107.637 142.226 108.546C143.651 110.266 145.933 111.261 147.636 112.654C149.276 113.996 151.483 113.696 153.315 114.564C154.743 115.241 157.855 114.632 159.519 114.632C161.399 114.632 163.295 114.297 164.675 115.849C165.674 116.973 163.271 118.862 162.545 119.483C161.899 120.038 159.232 123.901 159.981 124.5C161.606 125.8 166.247 123.269 166.481 122.5C166.981 121.867 167.481 121.5 167.853 121.867C168.981 123.5 168.981 123.5 169.981 124.5C170.981 125.5 174.656 128.548 177.117 129.778C180.295 131.367 182.787 126.474 180.024 124.403C178.968 123.61 178.261 122.809 177.353 121.867C177.175 121.682 175.663 119.989 176.508 120.177C177.551 120.408 184.317 122.277 184.859 120.379C185.796 117.1 176.499 116.104 174.547 115.714C172.287 115.262 168.322 114.975 167.853 112.164C167.294 108.808 165.96 107.05 163.481 104.5C161.436 102.397 158.699 97.0788 161.835 94.5C164.265 92.5023 167.465 90.4727 169.814 88.3119C172.612 85.7381 174.95 84.5211 177.353 81.5C180.024 78.1423 183.065 75.7031 184.981 74C189.481 70 190.981 69 192.981 65C195.981 61 195.72 62.173 197.655 59.2534C199.481 56.5 200.738 53.8513 202.575 51.3253C205.315 47.5571 209.441 44.5146 212.954 41.4701C215.819 38.9873 218.46 36.428 221.44 34.0998C223.322 32.6295 224.997 30.9772 226.579 29.1976C227.806 27.8172 230.097 26.0611 230.23 24.0587C230.327 22.6048 230.141 21.1637 230.382 19.7142C230.768 17.402 230.053 15.809 229.334 13.7132C228.85 12.3015 227.679 6.21539 229.317 5.3963" stroke="#FF04D7" stroke-width="3" stroke-linecap="round"/>
<path d="M231.751 22.7401C232.655 22.6397 233.476 20.6668 233.949 20.0016C235.502 17.8162 237.023 15.5529 238.75 13.4935C241.488 10.2289 244.555 7.19766 247.574 4.17919" stroke="#FF04D7" stroke-width="3" stroke-linecap="round"/>
<path d="M162.985 93.3325C162.028 93.3325 161.618 94.5766 160.99 95.1751C160.126 95.9983 159.298 96.8573 158.353 97.5924C156.18 99.2823 153.262 99.8095 150.814 100.939C148.197 102.147 145.766 102.109 143.038 102.528C140.054 102.987 137.304 103.427 134.383 104.286" stroke="#FF04D7" stroke-width="3" stroke-linecap="round"/>
<path d="M41.9217 80.4293C44.677 77.9037 47.783 76.0642 50.0315 73.0086C51.5466 70.9497 53.9942 69.0867 56.0211 67.549C58.331 65.7967 60.7428 64.1016 63.3359 62.8051C65.786 61.58 68.3 60.6062 70.0675 58.4851" stroke="#FF04D7" stroke-width="3" stroke-linecap="round"/>
</svg>
